<svg id="Layer_1" enable-background="new 0 0 512 512" height="512" viewBox="0 0 512 512" width="512" xmlns="http://www.w3.org/2000/svg"><g><path d="m357.396 81.886c-3.977-1.147-8.137 1.145-9.286 5.124l-66.532 230.32c-1.149 3.979 1.145 8.137 5.124 9.286.695.201 1.396.296 2.085.296 3.255 0 6.253-2.137 7.201-5.421l66.532-230.319c1.149-3.979-1.145-8.137-5.124-9.286z" fill="#d8e5ef"/><path d="m512 313.291v50.177l-30.03 13.809-18.89 8.679h-414.17l-48.91-22.488v-50.177c0-4.14 3.36-7.5 7.5-7.5 21.6 0 32.57 2.64 43.18 5.2 10.2 2.47 19.84 4.8 39.65 4.8 19.82 0 29.45-2.33 39.66-4.8 10.6-2.56 21.57-5.2 43.17-5.2s32.57 2.64 43.18 5.2c10.2 2.47 19.84 4.8 39.65 4.8 19.82 0 29.46-2.33 39.66-4.8 10.61-2.56 21.58-5.2 43.18-5.2s32.57 2.64 43.18 5.2c10.2 2.47 19.84 4.8 39.65 4.8 19.82 0 29.46-2.33 39.66-4.8 6.11-1.47 12.34-2.97 20.65-3.98 6.12-.75 13.37-1.22 22.53-1.22 4.14 0 7.5 3.36 7.5 7.5z" fill="#ffff4d"/><path d="m512 313.291v50.177l-30.03 13.809v-70.266c6.12-.75 13.37-1.22 22.53-1.22 4.14 0 7.5 3.36 7.5 7.5z" fill="#ffe150"/><g><path d="m512 363.466v141.032c0 4.141-3.36 7.502-7.5 7.502h-497c-4.14 0-7.5-3.361-7.5-7.502v-141.032c0-4.151 3.36-7.502 7.5-7.502 13.38 0 20.33 6.712 25.92 12.104 4.74 4.581 8.17 7.892 15.49 7.892 7.33 0 10.76-3.311 15.5-7.892 5.58-5.392 12.53-12.104 25.92-12.104 13.38 0 20.33 6.712 25.92 12.104 4.74 4.581 8.17 7.892 15.49 7.892 7.33 0 10.76-3.311 15.5-7.892 5.59-5.392 12.54-12.104 25.92-12.104s20.33 6.712 25.92 12.104c4.74 4.581 8.17 7.892 15.5 7.892 7.32 0 10.75-3.311 15.49-7.892 5.58-5.392 12.53-12.104 25.92-12.104 13.38 0 20.33 6.712 25.91 12.104 4.75 4.581 8.18 7.892 15.5 7.892 7.33 0 10.75-3.311 15.5-7.892 5.58-5.392 12.53-12.104 25.92-12.104 13.38 0 20.33 6.712 25.92 12.104 4.74 4.581 8.17 7.892 15.5 7.892 7.32 0 10.75-3.311 15.5-7.892 5.58-5.392 12.53-12.104 25.91-12.104 13.39 0 20.34 6.712 25.93 12.104 4.74 4.581 8.17 7.892 15.5 7.892 7.32 0 10.75-3.311 15.5-7.892 1.07-1.03 2.18-2.111 3.39-3.181 5.08-4.531 11.7-8.923 22.53-8.923 4.14-.001 7.5 3.35 7.5 7.502z" fill="#40d7ff"/><g fill="#2aa6f2"><path d="m512 363.466v141.032c0 4.141-3.36 7.502-7.5 7.502h-497c-4.14 0-7.5-3.361-7.5-7.502v-16.025h467.92c7.76 0 14.05-6.282 14.05-14.044v-109.543c5.08-4.531 11.7-8.923 22.53-8.923 4.14 0 7.5 3.351 7.5 7.503z"/><g><path d="m104.085 410.475h-47.795c-4.142 0-7.5 3.359-7.5 7.502s3.358 7.502 7.5 7.502h47.795c4.142 0 7.5-3.359 7.5-7.502s-3.358-7.502-7.5-7.502z"/><path d="m134.29 425.479h17.795c4.142 0 7.5-3.359 7.5-7.502s-3.358-7.502-7.5-7.502h-17.795c-4.142 0-7.5 3.359-7.5 7.502 0 4.144 3.358 7.502 7.5 7.502z"/><path d="m252.085 450.482h-20.795c-4.142 0-7.5 3.359-7.5 7.502s3.358 7.502 7.5 7.502h20.795c4.142 0 7.5-3.359 7.5-7.502s-3.358-7.502-7.5-7.502z"/><path d="m201.085 450.482h-74.795c-4.142 0-7.5 3.359-7.5 7.502s3.358 7.502 7.5 7.502h74.795c4.142 0 7.5-3.359 7.5-7.502s-3.358-7.502-7.5-7.502z"/><path d="m394.38 417.977c0-4.143-3.358-7.502-7.5-7.502h-67.795c-4.142 0-7.5 3.359-7.5 7.502s3.358 7.502 7.5 7.502h67.795c4.142 0 7.5-3.358 7.5-7.502z"/><path d="m288.88 410.475h-27.795c-4.142 0-7.5 3.359-7.5 7.502s3.358 7.502 7.5 7.502h27.795c4.142 0 7.5-3.359 7.5-7.502s-3.358-7.502-7.5-7.502z"/><path d="m446.705 450.482h-104.155c-4.142 0-7.5 3.359-7.5 7.502s3.358 7.502 7.5 7.502h104.154c4.142 0 7.5-3.359 7.5-7.502.001-4.143-3.357-7.502-7.499-7.502z"/></g></g></g><path d="m352.26 99.663-61.69 73.646-28.82 34.408c-3.28-.95-5.42-3.95-5.42-7.2 0-.69.1-1.39.3-2.09 1.56-5.38.92-11.049-1.79-15.959-2.7-4.91-7.16-8.46-12.55-10.019-5.38-1.55-11.05-.92-15.96 1.79-4.9 2.7-8.46 7.16-10.02 12.549-1.15 3.97-5.3 6.27-9.28 5.12s-6.28-5.31-5.13-9.29c.01-.02.01-.04.02-.05 3.52-12.179 8.82-23.539 15.66-33.788 10.65-15.959 25.04-29.248 42.32-38.778 28.4-15.669 61.2-19.339 92.36-10.339z" fill="#40d7ff"/><path d="m435.23 249.984c0 .01 0 .02-.01.03-.95 3.28-3.94 5.42-7.2 5.42-.69 0-1.39-.1-2.08-.3-3.98-1.15-6.28-5.31-5.13-9.279 3.21-11.12-3.22-22.779-14.33-25.989-11.12-3.21-22.77 3.22-25.98 14.339-1.15 3.98-5.31 6.27-9.29 5.12l-6.27-46.178-12.68-93.485c18.66 5.39 35.4 14.939 49.18 27.828 9.24 8.64 17.15 18.779 23.44 30.168 15.67 28.39 19.34 61.178 10.35 92.326z" fill="#ff7680"/><path d="m435.23 249.984c0 .01 0 .02-.01.03-.95 3.28-3.94 5.42-7.2 5.42-.69 0-1.39-.1-2.08-.3-3.98-1.15-6.28-5.31-5.13-9.279 3.21-11.12-3.22-22.779-14.33-25.989-11.12-3.21-22.77 3.22-25.98 14.339-1.15 3.98-5.31 6.27-9.29 5.12l-6.27-46.178c16.73 3.3 30.56 4.73 39.11 3.19 16.6-2.99 10.24-34.028-2.61-68.846 9.24 8.64 17.15 18.779 23.44 30.168 15.67 28.389 19.34 61.177 10.35 92.325z" fill="#f44d90"/><path d="m193.18 242.565-9.63 15.199-8.72 13.759-28.94 18.339c-8.42-13.249-6.85-31.008 4.71-42.578 4.81-4.81 10.7-7.89 16.89-9.229 8.68-1.91 17.96-.4 25.69 4.51z" fill="#ff7680"/><path d="m193.18 242.565-9.63 15.199c-3.08-8.189-8.77-15.099-16.06-19.709 8.68-1.91 17.96-.4 25.69 4.51z" fill="#f44d90"/><path d="m199.07 295.752c-8.4 8.41-20.08 11.529-30.92 9.38-4.08-.8-8.04-2.36-11.66-4.66l18.34-28.948 10.65-6.74 18.3-11.599c8.42 13.258 6.84 31.017-4.71 42.567z" fill="#40d7ff"/><path d="m290.57 173.309-28.82 34.408c-3.28-.95-5.42-3.95-5.42-7.2 0-.69.1-1.39.3-2.09 1.56-5.38.92-11.049-1.79-15.959-2.7-4.91-7.16-8.46-12.55-10.019-5.38-1.55-11.05-.92-15.96 1.79-4.9 2.7-8.46 7.16-10.02 12.549-1.15 3.97-5.3 6.27-9.28 5.12s-6.28-5.31-5.13-9.29c.01-.02.01-.04.02-.05 3.52-12.179 8.82-23.539 15.66-33.788 20.58 7.349 46.64 16.319 72.99 24.529z" fill="#2aa6f2"/><path d="m199.07 295.752c-8.4 8.41-20.08 11.529-30.92 9.38 10.81-7.14 17.94-19.399 17.94-33.328 0-2.4-.21-4.74-.61-7.02l18.3-11.599c8.42 13.258 6.84 31.017-4.71 42.567z" fill="#2aa6f2"/><path d="m203.78 253.184-47.29 47.287c-2.09-1.32-4.07-2.89-5.89-4.72-1.82-1.82-3.4-3.8-4.71-5.89l35.96-35.968 11.33-11.329c2.09 1.32 4.07 2.9 5.89 4.72 1.83 1.83 3.4 3.81 4.71 5.9z" fill="#eef7ff"/><path d="m203.78 253.184-17.7 17.699c-.14-6.1-1.65-11.859-4.23-16.989l11.33-11.329c2.09 1.32 4.07 2.9 5.89 4.72 1.83 1.829 3.4 3.809 4.71 5.899z" fill="#d8e5ef"/><g><path d="m160.19 79.046c0 17.219-13.99 31.218-31.2 31.218-2.63 0-5.18-.33-7.62-.94-13.53-3.41-23.57-15.689-23.57-30.278 0-14.579 10.04-26.869 23.57-30.278 2.44-.61 4.99-.94 7.62-.94 17.21-.001 31.2 14.009 31.2 31.218z" fill="#ffff4d"/><g fill="#ffe150"><path d="m160.19 79.046c0 17.219-13.99 31.218-31.2 31.218-2.63 0-5.18-.33-7.62-.94 9.56-6.67 15.82-17.759 15.82-30.278s-6.26-23.609-15.82-30.278c2.44-.61 4.99-.94 7.62-.94 17.21-.001 31.2 14.009 31.2 31.218z"/><path d="m128.994 125.281c-4.142 0-7.5 3.359-7.5 7.502v17.808c0 4.143 3.358 7.502 7.5 7.502s7.5-3.359 7.5-7.502v-17.808c0-4.143-3.358-7.502-7.5-7.502z"/><path d="m128.994 32.812c4.142 0 7.5-3.359 7.5-7.502v-17.808c0-4.143-3.358-7.502-7.5-7.502s-7.5 3.359-7.5 7.502v17.808c0 4.143 3.358 7.502 7.5 7.502z"/><path d="m82.796 79.047c0-4.143-3.358-7.502-7.5-7.502h-17.796c-4.142 0-7.5 3.359-7.5 7.502s3.358 7.502 7.5 7.502h17.795c4.143 0 7.501-3.359 7.501-7.502z"/><path d="m200.488 71.544h-17.795c-4.142 0-7.5 3.359-7.5 7.502s3.358 7.502 7.5 7.502h17.795c4.142 0 7.5-3.359 7.5-7.502s-3.358-7.502-7.5-7.502z"/><path d="m85.719 111.74-12.583 12.592c-2.929 2.931-2.928 7.681.002 10.61 1.464 1.464 3.383 2.196 5.302 2.196 1.92 0 3.84-.733 5.304-2.198l12.583-12.592c2.929-2.931 2.928-7.681-.002-10.61-2.929-2.93-7.678-2.93-10.606.002z"/><path d="m166.965 48.551c1.92 0 3.84-.733 5.304-2.198l12.583-12.592c2.929-2.931 2.928-7.681-.002-10.61-2.93-2.93-7.679-2.929-10.606.002l-12.583 12.592c-2.929 2.931-2.928 7.681.002 10.61 1.464 1.464 3.383 2.196 5.302 2.196z"/><path d="m85.719 46.353c1.464 1.466 3.384 2.198 5.304 2.198 1.919 0 3.838-.732 5.302-2.196 2.93-2.929 2.93-7.68.002-10.61l-12.583-12.592c-2.928-2.931-7.677-2.932-10.606-.002-2.93 2.929-2.93 7.68-.002 10.61z"/><path d="m172.269 111.74c-2.928-2.931-7.677-2.931-10.606-.002-2.93 2.929-2.931 7.679-.002 10.61l12.583 12.592c1.464 1.466 3.384 2.198 5.304 2.198 1.919 0 3.838-.732 5.302-2.196 2.93-2.929 2.931-7.679.002-10.61z"/></g></g><path d="m352.26 99.663-24.43 84.575-11.35 39.288c-3.28-.95-5.42-3.95-5.42-7.21 0-.68.1-1.39.3-2.08 1.55-5.39.92-11.049-1.79-15.959s-7.16-8.47-12.55-10.019c-11.11-3.21-22.77 3.22-25.98 14.329-1.15 3.98-5.31 6.28-9.29 5.13 0 0 4.78-17.869 13.83-39.168 14.85-34.948 41.17-79.146 76.68-68.886z" fill="#53f46e"/><path d="m327.83 184.238-11.35 39.288c-3.28-.95-5.42-3.95-5.42-7.21 0-.68.1-1.39.3-2.08 1.55-5.39.92-11.049-1.79-15.959s-7.16-8.47-12.55-10.019c-11.11-3.21-22.77 3.22-25.98 14.329-1.15 3.98-5.31 6.28-9.29 5.13 0 0 4.78-17.869 13.83-39.168 17.37 5.61 35.3 11.079 52.25 15.689z" fill="#33e279"/><path d="m380.87 195.817c-3.69 24.279-9.66 43.508-9.66 43.508-3.29-.94-5.42-3.94-5.42-7.2 0-.69.09-1.39.29-2.08 1.56-5.39.93-11.059-1.78-15.959-2.71-4.91-7.17-8.47-12.55-10.019-11.12-3.21-22.77 3.22-25.98 14.329-1.15 3.98-5.31 6.28-9.29 5.13l11.35-39.288 24.43-84.575c34.57 9.989 34.26 58.986 28.61 96.154z" fill="#ffff4d"/><path d="m380.87 195.817c-3.69 24.279-9.66 43.508-9.66 43.508-3.29-.94-5.42-3.94-5.42-7.2 0-.69.09-1.39.29-2.08 1.56-5.39.93-11.059-1.78-15.959-2.71-4.91-7.17-8.47-12.55-10.019-11.12-3.21-22.77 3.22-25.98 14.329-1.15 3.98-5.31 6.28-9.29 5.13l11.35-39.288c19.85 5.41 38.35 9.649 53.04 11.579z" fill="#ffe150"/></g></svg>